<?xml version="1.0" encoding="iso-8859-1"?>
<!-- Generator: Adobe Illustrator 19.0.0, SVG Export Plug-In . SVG Version: 6.00 Build 0)  -->
<svg version="1.1" id="Capa_1" xmlns="http://www.w3.org/2000/svg" xmlns:xlink="http://www.w3.org/1999/xlink" x="0px" y="0px"
	 viewBox="0 0 512 512" style="enable-background:new 0 0 512 512;" xml:space="preserve">
<path style="fill:#AD604C;" d="M428.972,177.206L266.109,28.426c-5.724-5.23-14.493-5.23-20.217,0L83.029,177.206
	c-3.108,2.84-4.879,6.854-4.879,11.065v308.741c0,8.277,6.71,14.987,14.987,14.987h325.726c8.277,0,14.987-6.71,14.987-14.987
	V188.271C433.851,184.061,432.08,180.046,428.972,177.206z"/>
<path style="fill:#E07F53;" d="M256,24.503c-3.623,0-7.247,1.308-10.109,3.923L83.029,177.206c-3.108,2.84-4.879,6.854-4.879,11.065
	v308.741c0,8.277,6.71,14.987,14.987,14.987H256V24.503z"/>
<path style="fill:#633C2C;" d="M266.482,348.138h-20.964c-36.642,0-66.453,29.77-66.453,66.362V512h153.871v-97.5
	C332.936,377.908,303.125,348.138,266.482,348.138z"/>
<path style="fill:#85493D;" d="M256,348.138h-10.482c-36.642,0-66.453,29.77-66.453,66.362V512H256V348.138z"/>
<path style="fill:#D1D1D1;" d="M485.628,214.862L286.48,12.76C278.488,4.651,267.379,0,256,0s-22.488,4.651-30.478,12.76
	L26.372,214.862c-16.57,16.814-16.395,43.999,0.391,60.6c8.139,8.049,18.919,12.439,30.364,12.368
	c11.441-0.074,22.168-4.605,30.204-12.76L256,103.9l168.67,171.349c8.109,8.228,18.934,12.938,30.479,12.938h0.001
	c11.336,0,22.021-4.572,30.086-12.548C502.023,259.039,502.198,231.675,485.628,214.862z"/>
<path style="fill:#F4F4F4;" d="M256,0c-11.378,0-22.488,4.651-30.478,12.76L26.372,214.862c-16.57,16.814-16.395,43.999,0.391,60.6
	c8.139,8.049,18.919,12.439,30.364,12.368c11.441-0.074,22.168-4.605,30.204-12.76L256,103.9V0z"/>
<path style="fill:#D1D1D1;" d="M341.387,277.01c6.994-5.271,11.516-13.645,11.516-23.077c0-15.951-12.93-28.881-28.881-28.881
	s-28.881,12.93-28.881,28.881h-78.284c0-15.951-12.93-28.881-28.881-28.881s-28.881,12.93-28.881,28.881
	c0,9.432,4.523,17.806,11.516,23.077c-6.994,5.271-11.516,13.645-11.516,23.077c0,15.951,12.93,28.881,28.881,28.881
	s28.881-12.93,28.881-28.881h78.284c0,15.951,12.93,28.881,28.881,28.881s28.881-12.93,28.881-28.881
	C352.904,290.656,348.381,282.281,341.387,277.01z"/>
<path style="fill:#F4F4F4;" d="M256,253.934h-39.142c0-15.951-12.93-28.881-28.881-28.881s-28.881,12.93-28.881,28.881
	c0,9.432,4.523,17.806,11.516,23.077c-6.994,5.271-11.516,13.645-11.516,23.077c0,15.951,12.93,28.881,28.881,28.881
	s28.881-12.93,28.881-28.881H256V253.934z"/>
<g>
</g>
<g>
</g>
<g>
</g>
<g>
</g>
<g>
</g>
<g>
</g>
<g>
</g>
<g>
</g>
<g>
</g>
<g>
</g>
<g>
</g>
<g>
</g>
<g>
</g>
<g>
</g>
<g>
</g>
</svg>
