<?xml version="1.0" encoding="iso-8859-1"?>
<!-- Generator: Adobe Illustrator 22.1.0, SVG Export Plug-In . SVG Version: 6.00 Build 0)  -->
<svg xmlns="http://www.w3.org/2000/svg" xmlns:xlink="http://www.w3.org/1999/xlink" version="1.1" id="Layer_1_1_" x="0px" y="0px" viewBox="0 0 64 64" style="enable-background:new 0 0 64 64;" xml:space="preserve" width="512" height="512">
<linearGradient id="SVGID_1_" gradientUnits="userSpaceOnUse" x1="32" y1="63" x2="32" y2="1">
	<stop offset="0" style="stop-color:#9F2FFF"/>
	<stop offset="1" style="stop-color:#0BB1D3"/>
</linearGradient>
<path style="fill:url(#SVGID_1_);" d="M39,22c0,0.552-0.448,1-1,1s-1-0.448-1-1c0-0.552,0.448-1,1-1S39,21.448,39,22z M26,21  c-0.552,0-1,0.448-1,1c0,0.552,0.448,1,1,1s1-0.448,1-1C27,21.448,26.552,21,26,21z M22.293,37.707l1.014-1.014  C24.975,37.299,27.805,38,32,38s7.025-0.701,8.693-1.307l1.014,1.014L42,37.414c0.645-0.646,1-1.503,1-2.414s-0.355-1.769-1-2.414  l-0.293-0.293l-1.414,1.414L40.585,34c0.133,0.133,0.235,0.287,0.305,0.455C39.767,34.972,36.918,36,32,36  c-4.918,0-7.767-1.028-8.89-1.545c0.07-0.168,0.172-0.322,0.305-0.455l0.293-0.293l-1.414-1.414L22,32.586  c-0.645,0.646-1,1.503-1,2.414s0.355,1.769,1,2.414L22.293,37.707z M58,51.034V63H6V51.034c0-3.997,2.684-7.556,6.527-8.654  l7.571-2.163c-0.016-0.112-0.033-0.224-0.045-0.338C18.139,38.537,17,36.854,17,35c0-0.357,0.056-0.705,0.137-1.048  C13.131,33.519,10,30.119,10,26c0-3.73,2.57-6.863,6.03-7.744c0.294-3.709,2.77-6.91,6.346-8.101c1.88-0.627,3.403-1.948,4.29-3.721  l0.977-1.952l3.812,2.858C31.816,5.923,32,4.469,32,3V1l4,3c1.065,0.799,1.765,2,1.951,3.303l4.188,1.676  C45.699,10.402,48,13.801,48,17.636v0.628c3.445,0.892,6,4.017,6,7.737c0,4.119-3.131,7.519-7.137,7.952  C46.944,34.295,47,34.643,47,35c0,1.854-1.139,3.537-3.053,4.88c-0.012,0.113-0.028,0.225-0.045,0.338l7.571,2.163  C55.316,43.479,58,47.037,58,51.034z M44,30.159v-8.087C44,18.724,41.276,16,37.929,16c-1.622,0-3.146,0.632-4.293,1.778L32,19.414  l-1.636-1.636C29.217,16.632,27.693,16,26.071,16C22.724,16,20,18.724,20,22.071v8.087c1.55-1.1,3.615-1.976,6.037-2.522  C26.223,25.603,27.919,24,30,24c0.705,0,1.393,0.19,2,0.546C32.607,24.19,33.295,24,34,24c2.081,0,3.777,1.603,3.963,3.637  C40.385,28.182,42.45,29.058,44,30.159z M34,26c-0.621,0-1.066,0.283-1.331,0.521l-0.535,0.482c1.292,0.006,2.535,0.1,3.723,0.263  C35.563,26.526,34.844,26,34,26z M31.331,26.521C31.066,26.283,30.621,26,30,26c-0.844,0-1.563,0.526-1.856,1.267  c1.187-0.163,2.43-0.257,3.723-0.263L31.331,26.521z M18,24c-1.103,0-2,0.897-2,2s0.897,2,2,2V24z M46,24v4c1.103,0,2-0.897,2-2  S47.103,24,46,24z M46,20c-0.092,0-0.183,0.012-0.275,0.016c0.168,0.635,0.266,1.299,0.272,1.984c0.001,0,0.002,0,0.004,0  c2.206,0,4,1.794,4,4s-1.794,4-4,4v2c3.309,0,6-2.691,6-6S49.309,20,46,20z M18.079,18.005c0.331,0.003,0.661,0.029,0.988,0.073  C20.459,15.646,23.074,14,26.071,14c2.156,0,4.183,0.84,5.707,2.364L32,16.586l0.222-0.222C33.746,14.84,35.773,14,37.929,14  c2.997,0,5.612,1.646,7.004,4.077C45.286,18.03,45.642,18,46,18v-0.364c0-3.013-1.807-5.682-4.604-6.8L36,8.677V8  c0-0.939-0.449-1.836-1.2-2.4l-0.895-0.671C33.762,6.366,33.459,7.784,33,9.162l-0.489,1.471l-4.155-3.115  c-1.137,2.155-3.029,3.761-5.348,4.533C20.333,12.943,18.453,15.268,18.079,18.005z M18,32v-2c-2.206,0-4-1.794-4-4s1.794-4,4-4  c0.001,0,0.002,0,0.004,0c0.006-0.686,0.104-1.349,0.272-1.984C18.183,20.012,18.092,20,18,20c-3.309,0-6,2.691-6,6S14.691,32,18,32  z M19,35c0,2.897,5.224,6,13,6s13-3.103,13-6s-5.224-6-13-6S19,32.103,19,35z M32,43c-3.688,0-7.025-0.676-9.611-1.813  C23.583,44.537,27.435,47,32,47s8.417-2.463,9.611-5.813C39.025,42.324,35.688,43,32,43z M34.025,61  c-0.758-0.568-1.447-1.233-2.025-2.007c-0.578,0.774-1.268,1.439-2.025,2.007H34.025z M56,51.034c0-3.108-2.088-5.877-5.077-6.73  l-7.542-2.154C41.793,46.123,37.295,49,32,49s-9.793-2.877-11.381-6.851l-7.542,2.154C10.088,45.157,8,47.926,8,51.034V61h10.026  C15.588,59.175,14,56.273,14,53h2c0,4.411,3.589,8,8,8c3.005,0,5.73-1.666,7.111-4.347L32,54.928l0.889,1.726  C34.27,59.334,36.995,61,40,61c4.411,0,8-3.589,8-8h2c0,3.273-1.588,6.175-4.026,8H56V51.034z M40,57h2v-2h-2V57z M22,57h2v-2h-2V57  z"/>
</svg>
