<svg height="496pt" viewBox="-40 0 496 496" width="496pt" xmlns="http://www.w3.org/2000/svg"><path d="m289.113281 63.832031-33.511719-13.40625c-1.480468-10.425781-7.082031-20.035156-15.601562-26.425781l-32-24v16c0 11.753906-1.472656 23.390625-4.375 34.71875l-30.496094-22.863281-7.816406 15.617187c-7.097656 14.175782-19.28125 24.75-34.3125 29.765625-30.503906 10.160157-51 38.59375-51 70.761719v2.351562c5.070312-1.511718 10.441406-2.351562 16-2.351562 4.441406 0 8.769531.519531 12.910156 1.496094h.042969c8.832031-19.726563 28.597656-33.496094 51.613281-33.496094 15 0 29.394532 5.960938 40 16.566406l7.433594 7.433594 7.433594-7.433594c10.605468-10.605468 25-16.566406 40-16.566406 23.015625 0 42.78125 13.769531 51.613281 33.496094h.042969c4.140625-.976563 8.46875-1.496094 12.910156-1.496094 5.558594 0 10.929688.839844 16 2.351562v-13.261718c0-30.683594-18.40625-57.875-46.886719-69.257813zm0 0" fill="#f0bc5e"/><path d="m264 168c0 4.417969-3.582031 8-8 8s-8-3.582031-8-8 3.582031-8 8-8 8 3.582031 8 8zm0 0"/><path d="m168 168c0 4.417969-3.582031 8-8 8s-8-3.582031-8-8 3.582031-8 8-8 8 3.582031 8 8zm0 0"/><path d="m130.34375 293.65625 8.113281-8.113281c13.34375 4.847656 35.984375 10.457031 69.542969 10.457031s56.199219-5.609375 69.542969-10.457031l8.113281 8.113281 2.34375-2.34375c5.160156-5.167969 8-12.023438 8-19.3125s-2.839844-14.152344-8-19.3125l-2.34375-2.34375-11.3125 11.3125 2.335938 2.34375c1.0625 1.0625 1.878906 2.296875 2.441406 3.640625-8.984375 4.136719-31.777344 12.359375-71.121094 12.359375s-62.136719-8.222656-71.121094-12.359375c.5625-1.34375 1.378906-2.578125 2.441406-3.640625l2.34375-2.34375-11.3125-11.3125-2.351562 2.34375c-5.160156 5.167969-8 12.023438-8 19.3125s2.839844 14.152344 8 19.3125zm0 0"/><path d="m363.785156 331.039062-60.570312-17.304687c.128906-.894531.265625-1.789063.359375-2.703125 15.3125-10.734375 24.425781-24.199219 24.425781-39.03125 0-2.855469-.449219-5.640625-1.097656-8.382812 32.050781-3.464844 57.097656-30.664063 57.097656-63.617188 0-35.289062-28.710938-64-64-64-2.863281 0-5.710938.238281-8.535156.617188-11.136719-19.449219-32.058594-32.617188-56.03125-32.617188-17.25 0-33.464844 6.71875-45.65625 18.910156l-1.777344 1.777344-1.777344-1.777344c-12.191406-12.191406-28.40625-18.910156-45.65625-18.910156-23.972656 0-44.894531 13.167969-56.03125 32.617188-2.824218-.378907-5.671875-.617188-8.535156-.617188-35.289062 0-64 28.710938-64 64 0 32.953125 25.046875 60.152344 57.097656 63.617188-.648437 2.742187-1.097656 5.527343-1.097656 8.382812 0 14.832031 9.113281 28.296875 24.425781 39.039062.09375.90625.222657 1.800782.359375 2.703126l-60.570312 17.304687c-30.742188 8.785156-52.214844 37.25-52.214844 69.226563v95.726562h416v-95.726562c0-31.976563-21.472656-60.441407-52.214844-69.234376zm-27.785156-131.039062c0 8.824219-7.175781 16-16 16v-32c8.824219 0 16 7.175781 16 16zm-16-48c26.472656 0 48 21.527344 48 48s-21.527344 48-48 48v-16c17.648438 0 32-14.351562 32-32s-14.351562-32-32-32c-.007812 0-.015625 0-.03125 0-.046875-5.488281-.832031-10.792969-2.175781-15.871094.742187-.03125 1.472656-.128906 2.207031-.128906zm-159.433594-32c12.976563 0 25.167969 5.054688 34.34375 14.222656l13.089844 13.089844 13.089844-13.089844c9.175781-9.167968 21.367187-14.222656 34.34375-14.222656 26.773437 0 48.566406 21.792969 48.566406 48.566406v64.699219c-12.398438-8.800781-28.921875-15.808594-48.296875-20.175781-1.488281-16.265625-15.054687-29.089844-31.703125-29.089844-5.640625 0-11.144531 1.519531-16 4.367188-4.855469-2.847657-10.359375-4.367188-16-4.367188-16.648438 0-30.214844 12.824219-31.703125 29.097656-19.375 4.359375-35.898437 11.367188-48.296875 20.175782v-64.699219c0-26.78125 21.792969-48.574219 48.566406-48.574219zm78.28125 90.136719c-9.496094-1.304688-19.441406-2.058594-29.785156-2.105469l4.28125-3.855469c2.128906-1.910156 5.6875-4.175781 10.65625-4.175781 6.753906 0 12.503906 4.207031 14.847656 10.136719zm-31.917968-2.113281c-10.335938.046874-20.28125.800781-29.785157 2.105468 2.351563-5.921875 8.101563-10.128906 14.855469-10.128906 4.96875 0 8.527344 2.265625 10.648438 4.167969zm-110.929688 7.976562c-8.824219 0-16-7.175781-16-16s7.175781-16 16-16zm-48-16c0-26.472656 21.527344-48 48-48 .734375 0 1.464844.097656 2.199219.128906-1.34375 5.078125-2.128907 10.390625-2.175781 15.871094-.007813 0-.015626 0-.03125 0-17.648438 0-32 14.351562-32 32s14.351562 32 32 32v16c-26.464844 0-47.992188-21.527344-47.992188-48zm160 24c62.207031 0 104 24.824219 104 48s-41.792969 48-104 48-104-24.824219-104-48 41.792969-48 104-48zm76.886719 97.496094c-9.550781 26.800781-40.367188 46.503906-76.886719 46.503906s-67.335938-19.703125-76.886719-46.503906c20.6875 9.097656 47.382813 14.503906 76.886719 14.503906s56.199219-5.40625 76.886719-14.503906zm-93.085938 158.503906c6.0625-4.542969 11.574219-9.863281 16.199219-16.054688 4.625 6.191407 10.144531 11.511719 16.199219 16.054688zm208.199219 0h-80.207031c19.503906-14.601562 32.207031-37.816406 32.207031-64h-16c0 35.289062-28.710938 64-64 64-24.039062 0-45.839844-13.328125-56.886719-34.777344l-7.113281-13.796875-7.113281 13.804688c-11.046875 21.441406-32.847657 34.769531-56.886719 34.769531-35.289062 0-64-28.710938-64-64h-16c0 26.183594 12.703125 49.398438 32.207031 64h-80.207031v-79.726562c0-24.867188 16.703125-47.015626 40.617188-53.839844l60.335937-17.234375c12.703125 31.785156 48.6875 54.800781 91.046875 54.800781s78.34375-23.015625 91.046875-54.808594l60.335937 17.234375c23.914063 6.832031 40.617188 28.980469 40.617188 53.847657zm0 0"/><path d="m272 432h16v16h-16zm0 0"/><path d="m128 432h16v16h-16zm0 0"/></svg>